<svg xmlns="http://www.w3.org/2000/svg" version="1.1" xmlns:xlink="http://www.w3.org/1999/xlink" viewBox="0 0 200 200"><rect width="200" height="200" fill="url('#gradient')"></rect><defs><linearGradient id="gradient" gradientTransform="rotate(299 0.5 0.5)"><stop offset="0%" stop-color="#326531"></stop><stop offset="100%" stop-color="#2b1220"></stop></linearGradient></defs><g><g fill="#ffffff" transform="matrix(3.9551577955723034,0,0,3.9551577955723034,14.827471908437047,129.2705103099318)" stroke="#5d5d5d" stroke-width="0.45"><path d="M12.71-7.60L12.71-1.76Q11.92-0.88 10.40-0.34Q8.88 0.20 7.06 0.20L7.06 0.20Q4.27 0.20 2.60-1.51Q0.93-3.22 0.81-6.27L0.81-6.27L0.80-7.50Q0.80-9.60 1.54-11.17Q2.29-12.73 3.67-13.58Q5.05-14.42 6.87-14.42L6.87-14.42Q9.52-14.42 10.99-13.21Q12.46-11.99 12.71-9.58L12.71-9.58L9.40-9.58Q9.23-10.77 8.64-11.28Q8.06-11.79 6.98-11.79L6.98-11.79Q5.69-11.79 4.99-10.69Q4.29-9.60 4.28-7.57L4.28-7.57L4.28-6.71Q4.28-4.58 5.00-3.51Q5.73-2.44 7.29-2.44L7.29-2.44Q8.63-2.44 9.29-3.04L9.29-3.04L9.29-5.24L6.90-5.24L6.90-7.60L12.71-7.60ZM21.01-10.64L20.95-7.59L19.86-7.67Q18.31-7.67 17.87-6.69L17.87-6.69L17.87 0L14.58 0L14.58-10.57L17.67-10.57L17.77-9.21Q18.60-10.76 20.09-10.76L20.09-10.76Q20.62-10.76 21.01-10.64L21.01-10.64ZM31.08 0L27.79 0Q27.62-0.32 27.48-0.95L27.48-0.95Q26.57 0.20 24.94 0.20L24.94 0.20Q23.45 0.20 22.40-0.71Q21.36-1.61 21.36-2.98L21.36-2.98Q21.36-4.70 22.63-5.58Q23.90-6.46 26.32-6.46L26.32-6.46L27.33-6.46L27.33-7.01Q27.33-8.47 26.07-8.47L26.07-8.47Q24.90-8.47 24.90-7.31L24.90-7.31L21.61-7.31Q21.61-8.85 22.92-9.80Q24.22-10.76 26.24-10.76Q28.26-10.76 29.43-9.78Q30.61-8.79 30.63-7.07L30.63-7.07L30.63-2.39Q30.65-0.94 31.08-0.17L31.08-0.17L31.08 0ZM25.73-2.15L25.73-2.15Q26.35-2.15 26.75-2.41Q27.16-2.68 27.33-3.01L27.33-3.01L27.33-4.70L26.38-4.70Q24.66-4.70 24.66-3.15L24.66-3.15Q24.66-2.71 24.96-2.43Q25.26-2.15 25.73-2.15ZM42.27-5.36L42.27-5.20Q42.27-2.60 41.19-1.20Q40.12 0.20 38.16 0.20L38.16 0.20Q36.55 0.20 35.57-1.08L35.57-1.08L35.43 0L32.48 0L32.48-15L35.77-15L35.77-9.72Q36.69-10.76 38.14-10.76L38.14-10.76Q40.12-10.76 41.19-9.35Q42.27-7.93 42.27-5.36L42.27-5.36ZM38.96-5.40L38.96-5.40Q38.96-6.92 38.56-7.57Q38.15-8.22 37.31-8.22L37.31-8.22Q36.20-8.22 35.77-7.37L35.77-7.37L35.77-3.17Q36.19-2.33 37.33-2.33L37.33-2.33Q38.50-2.33 38.81-3.47L38.81-3.47Q38.96-4.02 38.96-5.40Z"></path></g></g></svg>